<svg
	width="21"
	height="22"
	viewBox="0 0 21 22"
	xmlns="http://www.w3.org/2000/svg"
>
	<g clip-path="url(#clip0_770_11303)">
		<path
			d="M4.96649 10.2755L4.96369 10.2731C4.34203 9.72677 4.68391 8.70395 5.50223 8.62955L5.50487 8.62931L5.50488 8.62932L8.47702 8.37502L9.63641 5.63536C9.95641 4.86789 11.0433 4.8678 11.3635 5.63509L12.5226 8.36624L15.4951 8.62057L15.4978 8.6208C16.317 8.69528 16.6602 9.72248 16.0236 10.2677C16.0231 10.2682 16.0225 10.2687 16.022 10.2692L13.7764 12.2133L14.452 15.1305L4.96649 10.2755ZM4.96649 10.2755L7.21474 12.2219L6.53925 15.1305C6.53923 15.1305 6.53922 15.1306 6.53921 15.1306C6.35067 15.9419 7.23386 16.5717 7.94087 16.1443C7.94104 16.1442 7.94122 16.1441 7.9414 16.144L10.5 14.6025M4.96649 10.2755L10.5 14.6025M10.5 14.6025L13.0586 16.144C13.0586 16.144 13.0587 16.144 13.0587 16.1441C13.7772 16.5788 14.6374 15.9291 14.4521 15.1309L10.5 14.6025ZM2.25 11C2.25 6.44549 5.93804 2.75 10.4913 2.75C15.0542 2.75 18.75 6.44647 18.75 11C18.75 15.5535 15.0542 19.25 10.4913 19.25C5.93804 19.25 2.25 15.5545 2.25 11Z"
		/>
	</g>
	<defs>
		<clipPath id="clip0_770_11303">
			<rect width="21" height="21" fill="white" transform="translate(0 0.5)" />
		</clipPath>
	</defs>
</svg>
