<svg width="30" height="30" viewBox="0 0 30 30" fill="none" xmlns="http://www.w3.org/2000/svg">
<g clip-path="url(#clip0_370_15417)">
<path d="M14.9875 2.5C8.0875 2.5 2.5 8.1 2.5 15C2.5 21.9 8.0875 27.5 14.9875 27.5C21.9 27.5 27.5 21.9 27.5 15C27.5 8.1 21.9 2.5 14.9875 2.5ZM19.025 21.7375L15 19.3125L10.975 21.7375C10.5 22.025 9.9125 21.6 10.0375 21.0625L11.1 16.4875L7.5625 13.425C7.15 13.0625 7.375 12.375 7.925 12.325L12.6 11.925L14.425 7.6125C14.6375 7.1 15.3625 7.1 15.575 7.6125L17.4 11.9125L22.075 12.3125C22.625 12.3625 22.85 13.05 22.425 13.4125L18.8875 16.475L19.95 21.0625C20.075 21.6 19.5 22.025 19.025 21.7375Z" fill="#76808C" fill-opacity="0.2"/>
</g>
<defs>
<clipPath id="clip0_370_15417">
<rect width="30" height="30" fill="white"/>
</clipPath>
</defs>
</svg>
