<svg
	width="20"
	height="20"
	viewBox="0 0 20 20"
	xmlns="http://www.w3.org/2000/svg"
>
	<g clip-path="url(#clip0_460_15538)">
		<path
			d="M15.8333 3.33268H15V2.49935C15 2.04102 14.625 1.66602 14.1667 1.66602C13.7083 1.66602 13.3333 2.04102 13.3333 2.49935V3.33268H6.66667V2.49935C6.66667 2.04102 6.29167 1.66602 5.83333 1.66602C5.375 1.66602 5 2.04102 5 2.49935V3.33268H4.16667C3.24167 3.33268 2.50833 4.08268 2.50833 4.99935L2.5 16.666C2.5 17.5827 3.24167 18.3327 4.16667 18.3327H15.8333C16.75 18.3327 17.5 17.5827 17.5 16.666V4.99935C17.5 4.08268 16.75 3.33268 15.8333 3.33268ZM15.8333 15.8327C15.8333 16.291 15.4583 16.666 15 16.666H5C4.54167 16.666 4.16667 16.291 4.16667 15.8327V7.49935H15.8333V15.8327ZM5.83333 9.16602H7.5V10.8327H5.83333V9.16602ZM9.16667 9.16602H10.8333V10.8327H9.16667V9.16602ZM12.5 9.16602H14.1667V10.8327H12.5V9.16602Z"
			fill-opacity="0.5"
		/>
	</g>
	<defs>
		<clipPath id="clip0_460_15538">
			<rect width="20" height="20" fill="white" />
		</clipPath>
	</defs>
</svg>
