<svg
	width="20"
	height="20"
	viewBox="0 0 20 20"
	xmlns="http://www.w3.org/2000/svg"
>
	<g clip-path="url(#clip0_460_15544)">
		<path
			d="M13.5332 6.46602C12.5582 5.49102 11.2832 4.99935 9.99984 4.99935V9.99935L6.4665 13.5327C8.4165 15.4827 11.5832 15.4827 13.5415 13.5327C15.4915 11.5827 15.4915 8.41602 13.5332 6.46602ZM9.99984 1.66602C5.39984 1.66602 1.6665 5.39935 1.6665 9.99935C1.6665 14.5993 5.39984 18.3327 9.99984 18.3327C14.5998 18.3327 18.3332 14.5993 18.3332 9.99935C18.3332 5.39935 14.5998 1.66602 9.99984 1.66602ZM9.99984 16.666C6.3165 16.666 3.33317 13.6827 3.33317 9.99935C3.33317 6.31602 6.3165 3.33268 9.99984 3.33268C13.6832 3.33268 16.6665 6.31602 16.6665 9.99935C16.6665 13.6827 13.6832 16.666 9.99984 16.666Z"
		/>
	</g>
	<defs>
		<clipPath id="clip0_460_15544">
			<rect width="20" height="20" fill="white" />
		</clipPath>
	</defs>
</svg>
