<svg width="40" height="40" viewBox="0 0 40 40" fill="none" xmlns="http://www.w3.org/2000/svg">
<g clip-path="url(#clip0_727_39939)">
<path d="M34.9835 29.9833L26.7501 21.75L23.2168 25.2833L31.4501 33.5167C32.4335 34.5 34.0168 34.5 34.9835 33.5167C35.9501 32.5333 35.9501 30.95 34.9835 29.9833Z" fill="#76808C"/>
<path d="M29.4167 16.667C32.6334 16.667 35.2501 14.0503 35.2501 10.8337C35.2501 9.86699 34.9834 8.96699 34.5667 8.16699L30.0667 12.667L27.5834 10.1837L32.0834 5.68366C31.2834 5.26699 30.3834 5.00033 29.4167 5.00033C26.2001 5.00033 23.5834 7.61699 23.5834 10.8337C23.5834 11.517 23.7167 12.167 23.9334 12.767L20.8501 15.8503L17.8834 12.8837C18.5334 12.2337 18.5334 11.1837 17.8834 10.5337L16.7001 9.35033L20.2334 5.81699C18.2834 3.86699 15.1167 3.86699 13.1667 5.81699L8.46673 10.5337C7.81673 11.1837 7.81673 12.2337 8.46673 12.8837L9.65006 14.067H5.41673C5.10007 14.067 4.80007 14.1837 4.5834 14.417C4.11673 14.8837 4.11673 15.617 4.5834 16.0837L8.81673 20.317C9.2834 20.7837 10.0167 20.7837 10.4834 20.317C10.7001 20.1003 10.8334 19.8003 10.8334 19.4837V15.2503L12.0001 16.417C12.6501 17.067 13.7001 17.067 14.3501 16.417L17.3167 19.3837L6.7334 29.967C5.75007 30.9503 5.75007 32.5337 6.7334 33.5003C7.71673 34.4837 9.30007 34.4837 10.2667 33.5003L27.4667 16.317C28.0834 16.5337 28.7334 16.667 29.4167 16.667Z" fill="#76808C"/>
</g>
<defs>
<clipPath id="clip0_727_39939">
<rect width="40" height="40" fill="white"/>
</clipPath>
</defs>
</svg>
