<svg width="23" height="22" viewBox="0 0 23 22" fill="none" xmlns="http://www.w3.org/2000/svg">
<g clip-path="url(#clip0_1149_8177)">
<path d="M15.7075 8.25H14.25V3.66667C14.25 3.1625 13.8375 2.75 13.3333 2.75H9.66665C9.16248 2.75 8.74998 3.1625 8.74998 3.66667V8.25H7.29248C6.47665 8.25 6.06415 9.24 6.64165 9.8175L10.8491 14.025C11.2066 14.3825 11.7841 14.3825 12.1416 14.025L16.3491 9.8175C16.9266 9.24 16.5233 8.25 15.7075 8.25ZM5.08331 17.4167C5.08331 17.9208 5.49581 18.3333 5.99998 18.3333H17C17.5041 18.3333 17.9166 17.9208 17.9166 17.4167C17.9166 16.9125 17.5041 16.5 17 16.5H5.99998C5.49581 16.5 5.08331 16.9125 5.08331 17.4167Z" fill="#0E141B"/>
</g>
<defs>
<clipPath id="clip0_1149_8177">
<rect width="22" height="22" fill="white" transform="translate(0.5)"/>
</clipPath>
</defs>
</svg>
