<svg width="21" height="20" viewBox="0 0 21 20" fill="none" xmlns="http://www.w3.org/2000/svg">
<path d="M12.8333 9.97786L11.6458 8.79036L14.625 4.9987H7.85413L6.18746 3.33203H16.3333C16.6805 3.33203 16.9305 3.48481 17.0833 3.79036C17.2361 4.09592 17.2083 4.38759 17 4.66536L12.8333 9.97786ZM16.9791 18.832L12.1666 14.0195V15.832C12.1666 16.0681 12.0868 16.2661 11.927 16.4258C11.7673 16.5855 11.5694 16.6654 11.3333 16.6654H9.66663C9.43052 16.6654 9.2326 16.5855 9.07288 16.4258C8.91315 16.2661 8.83329 16.0681 8.83329 15.832V10.6862L1.66663 3.51953L2.83329 2.33203L18.1666 17.6654L16.9791 18.832Z" fill="#76808C"/>
</svg>
