<svg width="20" height="20" viewBox="0 0 20 20" fill="none" xmlns="http://www.w3.org/2000/svg">
<g clip-path="url(#clip0_477_7265)">
<path d="M9.16675 5.83268H10.8334V7.49935H9.16675V5.83268ZM10.0001 14.166C10.4584 14.166 10.8334 13.791 10.8334 13.3327V9.99935C10.8334 9.54102 10.4584 9.16602 10.0001 9.16602C9.54175 9.16602 9.16675 9.54102 9.16675 9.99935V13.3327C9.16675 13.791 9.54175 14.166 10.0001 14.166ZM10.0001 1.66602C5.40008 1.66602 1.66675 5.39935 1.66675 9.99935C1.66675 14.5993 5.40008 18.3327 10.0001 18.3327C14.6001 18.3327 18.3334 14.5993 18.3334 9.99935C18.3334 5.39935 14.6001 1.66602 10.0001 1.66602ZM10.0001 16.666C6.32508 16.666 3.33341 13.6743 3.33341 9.99935C3.33341 6.32435 6.32508 3.33268 10.0001 3.33268C13.6751 3.33268 16.6667 6.32435 16.6667 9.99935C16.6667 13.6743 13.6751 16.666 10.0001 16.666Z" fill="#76808C"/>
</g>
<defs>
<clipPath id="clip0_477_7265">
<rect width="20" height="20" fill="white"/>
</clipPath>
</defs>
</svg>
