<svg width="19" height="19" viewBox="0 0 19 19" fill="none" xmlns="http://www.w3.org/2000/svg">
<g clip-path="url(#clip0_494_5820)">
<path d="M9.49225 1.58203C5.12225 1.58203 1.5835 5.1287 1.5835 9.4987C1.5835 13.8687 5.12225 17.4154 9.49225 17.4154C13.8702 17.4154 17.4168 13.8687 17.4168 9.4987C17.4168 5.1287 13.8702 1.58203 9.49225 1.58203ZM14.9785 6.33203H12.6431C12.3897 5.34245 12.0256 4.39245 11.5506 3.5137C13.0072 4.01245 14.2185 5.02578 14.9785 6.33203ZM9.50016 3.19703C10.1572 4.14703 10.6718 5.19995 11.0122 6.33203H7.98808C8.3285 5.19995 8.84308 4.14703 9.50016 3.19703ZM3.37266 11.082C3.246 10.5754 3.16683 10.0449 3.16683 9.4987C3.16683 8.95245 3.246 8.42203 3.37266 7.91536H6.0485C5.98516 8.43786 5.93766 8.96036 5.93766 9.4987C5.93766 10.037 5.98516 10.5595 6.0485 11.082H3.37266ZM4.02183 12.6654H6.35725C6.61058 13.6549 6.97475 14.6049 7.44975 15.4837C5.99308 14.9849 4.78183 13.9795 4.02183 12.6654ZM6.35725 6.33203H4.02183C4.78183 5.01786 5.99308 4.01245 7.44975 3.5137C6.97475 4.39245 6.61058 5.34245 6.35725 6.33203ZM9.50016 15.8004C8.84308 14.8504 8.3285 13.7974 7.98808 12.6654H11.0122C10.6718 13.7974 10.1572 14.8504 9.50016 15.8004ZM11.3527 11.082H7.64766C7.57641 10.5595 7.521 10.037 7.521 9.4987C7.521 8.96036 7.57641 8.42995 7.64766 7.91536H11.3527C11.4239 8.42995 11.4793 8.96036 11.4793 9.4987C11.4793 10.037 11.4239 10.5595 11.3527 11.082ZM11.5506 15.4837C12.0256 14.6049 12.3897 13.6549 12.6431 12.6654H14.9785C14.2185 13.9716 13.0072 14.9849 11.5506 15.4837ZM12.9518 11.082C13.0152 10.5595 13.0627 10.037 13.0627 9.4987C13.0627 8.96036 13.0152 8.43786 12.9518 7.91536H15.6277C15.7543 8.42203 15.8335 8.95245 15.8335 9.4987C15.8335 10.0449 15.7543 10.5754 15.6277 11.082H12.9518Z" fill="#66C0F4"/>
</g>
<defs>
<clipPath id="clip0_494_5820">
<rect width="19" height="19" fill="white"/>
</clipPath>
</defs>
</svg>
