<svg width="31" height="32" viewBox="0 0 31 32" fill="none" xmlns="http://www.w3.org/2000/svg">
<g clip-path="url(#clip0_505_9726)">
<path d="M21.9587 13.9708V4.3737C21.9587 3.66328 21.3774 3.08203 20.667 3.08203H10.3337C9.62324 3.08203 9.04199 3.66328 9.04199 4.3737V13.9708C9.04199 14.4229 9.27449 14.8491 9.67491 15.0816L15.0741 18.3237L13.7953 21.3462L10.9278 21.5916C10.3337 21.6433 10.1012 22.3537 10.5403 22.7283L12.7232 24.6141L12.0645 27.43C11.9353 27.9854 12.5424 28.4245 13.0332 28.1274L15.5003 26.6291L17.9674 28.1145C18.4582 28.4116 19.0653 27.9725 18.9362 27.417L18.2774 24.6012L20.4603 22.7154C20.8866 22.3408 20.667 21.6304 20.0857 21.5787L17.2182 21.3333L15.9395 18.3108L21.3387 15.0687C21.7262 14.8491 21.9587 14.4358 21.9587 13.9708ZM16.792 16.2958L15.5003 17.0708L14.2087 16.2958V4.3737H16.792V16.2958Z" fill="#76808C"/>
</g>
<defs>
<clipPath id="clip0_505_9726">
<rect width="31" height="31" fill="white" transform="translate(0 0.5)"/>
</clipPath>
</defs>
</svg>
