<svg width="26" height="25" viewBox="0 0 26 25" fill="none" xmlns="http://www.w3.org/2000/svg">
<path d="M12.7961 2.08203C7.27241 2.08203 2.71994 6.19661 2.18677 11.457L7.48518 14.3318C8.05034 13.8422 8.78662 13.5404 9.59704 13.5404C9.62903 13.5404 9.65044 13.5505 9.68243 13.5505C10.3222 12.5922 11.143 11.3733 11.7402 10.5191C11.7402 10.4775 11.7297 10.4466 11.7297 10.4154C11.7297 9.30078 12.1775 8.25903 12.9773 7.46737C14.5875 5.89445 17.4028 5.89445 19.013 7.46737C19.8127 8.25903 20.2605 9.30078 20.2605 10.4154C20.2605 11.5299 19.8127 12.5717 19.013 13.3634C18.2025 14.1446 17.1361 14.582 15.9951 14.582C15.9631 14.582 15.9209 14.5719 15.8889 14.5719C15.0145 15.1552 13.7667 15.9569 12.7857 16.5819C12.7857 16.6132 12.7961 16.6341 12.7961 16.6654C12.7961 18.3945 11.3672 19.7904 9.59704 19.7904C7.82691 19.7904 6.398 18.3945 6.398 16.6654C6.398 16.4883 6.4095 16.3112 6.45215 16.1445L2.22842 13.8537C2.90022 18.9683 7.37904 22.9154 12.7961 22.9154C18.6823 22.9154 23.4596 18.2487 23.4596 12.4987C23.4596 6.7487 18.6823 2.08203 12.7961 2.08203ZM6.45215 16.1445L9.07428 17.5707C9.2449 17.6645 9.41576 17.707 9.59704 17.707C9.97026 17.707 10.3319 17.5094 10.5238 17.176C10.8118 16.6656 10.6316 16.0308 10.1198 15.76L7.48518 14.3318C6.94134 14.7797 6.56945 15.4258 6.45215 16.1445ZM15.9951 8.33203C15.4295 8.33203 14.887 8.55152 14.4871 8.94223C14.0871 9.33293 13.8624 9.86283 13.8624 10.4154C13.8624 10.9679 14.0871 11.4978 14.4871 11.8885C14.887 12.2792 15.4295 12.4987 15.9951 12.4987C16.5607 12.4987 17.1032 12.2792 17.5032 11.8885C17.9031 11.4978 18.1278 10.9679 18.1278 10.4154C18.1278 9.86283 17.9031 9.33293 17.5032 8.94223C17.1032 8.55152 16.5607 8.33203 15.9951 8.33203Z" fill="#76808C"/>
</svg>
