<svg width="26" height="25" viewBox="0 0 26 25" fill="none" xmlns="http://www.w3.org/2000/svg">
<path d="M16.9595 1.12158C16.8945 1.11182 16.8208 1.11792 16.7408 1.14396C15.6745 1.3523 14.5028 1.9773 13.7563 2.70646C13.1165 3.33146 12.5838 4.37313 12.5838 5.31063C12.5838 5.51896 12.7954 5.7277 13.0086 5.7277C14.1816 5.62354 15.355 4.99813 16.1014 4.26896C16.7413 3.43563 17.274 2.49854 17.274 1.56104C17.274 1.32666 17.1545 1.15088 16.9595 1.12158ZM17.274 5.62394C15.3546 5.62394 14.5028 6.76937 13.2231 6.76937C11.8369 6.76937 10.5573 5.7277 8.95776 5.7277C6.71843 5.7277 3.30529 7.81063 3.30529 12.6023C3.19865 16.9773 7.25118 21.8735 9.59715 21.8735C10.9834 21.8735 11.3037 21.0394 13.2231 21.0394C15.1426 21.0394 15.5691 21.8735 16.9554 21.8735C18.5549 21.8735 19.7279 20.2065 20.6876 18.8523C21.1141 18.1231 21.434 17.7073 21.7539 17.0823C21.9672 16.6656 21.7535 16.2489 21.327 16.0406C18.5545 14.6864 18.0221 10.3114 21.1145 8.74894C21.6477 8.43644 21.7535 7.81022 21.327 7.49772C20.154 6.45606 18.447 5.62394 17.274 5.62394Z" fill="#76808C"/>
</svg>
