<svg width="30" height="31" viewBox="0 0 30 31" fill="none" xmlns="http://www.w3.org/2000/svg">
<path d="M13.5 20.375L19.3375 16C19.675 15.75 19.675 15.25 19.3375 15L13.5 10.625C13.0875 10.3125 12.5 10.6125 12.5 11.125V19.875C12.5 20.3875 13.0875 20.6875 13.5 20.375ZM15 3C8.1 3 2.5 8.6 2.5 15.5C2.5 22.4 8.1 28 15 28C21.9 28 27.5 22.4 27.5 15.5C27.5 8.6 21.9 3 15 3ZM15 25.5C9.4875 25.5 5 21.0125 5 15.5C5 9.9875 9.4875 5.5 15 5.5C20.5125 5.5 25 9.9875 25 15.5C25 21.0125 20.5125 25.5 15 25.5Z" fill="#F3F3F3"/>
</svg>
