<svg
	width="20"
	height="20"
	viewBox="0 0 20 20"
	xmlns="http://www.w3.org/2000/svg"
>
	<g clip-path="url(#clip0_1021_3793)">
		<path
			d="M12.9167 11.6672H12.2584L12.025 11.4422C13.025 10.2755 13.5417 8.68385 13.2584 6.99219C12.8667 4.67552 10.9334 2.82552 8.60003 2.54219C5.07503 2.10885 2.10837 5.07552 2.5417 8.60052C2.82503 10.9339 4.67503 12.8672 6.9917 13.2589C8.68337 13.5422 10.275 13.0255 11.4417 12.0255L11.6667 12.2589V12.9172L15.2084 16.4589C15.55 16.8005 16.1084 16.8005 16.45 16.4589C16.7917 16.1172 16.7917 15.5589 16.45 15.2172L12.9167 11.6672ZM7.9167 11.6672C5.8417 11.6672 4.1667 9.99219 4.1667 7.91719C4.1667 5.84219 5.8417 4.16719 7.9167 4.16719C9.9917 4.16719 11.6667 5.84219 11.6667 7.91719C11.6667 9.99219 9.9917 11.6672 7.9167 11.6672Z"
		/>
	</g>
	<defs>
		<clipPath id="clip0_1021_3793">
			<rect width="20" height="20" fill="white" />
		</clipPath>
	</defs>
</svg>
