<svg width="27" height="26" viewBox="0 0 27 26" fill="none" xmlns="http://www.w3.org/2000/svg">
<g clip-path="url(#clip0_379_8586)">
<path d="M21.3482 14.0351C21.3904 13.6971 21.4221 13.3591 21.4221 13C21.4221 12.6409 21.3904 12.3029 21.3482 11.9649L23.5769 10.2221C23.7776 10.0636 23.8304 9.77844 23.7036 9.54606L21.5911 5.89144C21.4644 5.65906 21.1792 5.57456 20.9468 5.65906L18.3167 6.71531C17.7675 6.29281 17.176 5.94425 16.5317 5.68019L16.1303 2.88113C16.0986 2.62763 15.8768 2.4375 15.6127 2.4375H11.3877C11.1237 2.4375 10.9019 2.62763 10.8702 2.88113L10.4688 5.68019C9.82449 5.94425 9.23299 6.30338 8.68374 6.71531L6.05368 5.65906C5.81074 5.564 5.53611 5.65906 5.40936 5.89144L3.29686 9.54606C3.15955 9.77844 3.22293 10.0636 3.42361 10.2221L5.6523 11.9649C5.61005 12.3029 5.57836 12.6514 5.57836 13C5.57836 13.3486 5.61005 13.6971 5.6523 14.0351L3.42361 15.7779C3.22293 15.9364 3.17011 16.2216 3.29686 16.4539L5.40936 20.1086C5.53611 20.3409 5.8213 20.4254 6.05368 20.3409L8.68374 19.2847C9.23299 19.7072 9.82449 20.0558 10.4688 20.3198L10.8702 23.1189C10.9019 23.3724 11.1237 23.5625 11.3877 23.5625H15.6127C15.8768 23.5625 16.0986 23.3724 16.1303 23.1189L16.5317 20.3198C17.176 20.0558 17.7675 19.6966 18.3167 19.2847L20.9468 20.3409C21.1897 20.436 21.4644 20.3409 21.5911 20.1086L23.7036 16.4539C23.8304 16.2216 23.7776 15.9364 23.5769 15.7779L21.3482 14.0351ZM13.5002 16.6969C11.4617 16.6969 9.80336 15.0386 9.80336 13C9.80336 10.9614 11.4617 9.30313 13.5002 9.30313C15.5388 9.30313 17.1971 10.9614 17.1971 13C17.1971 15.0386 15.5388 16.6969 13.5002 16.6969Z" fill="#76808C"/>
</g>
<defs>
<clipPath id="clip0_379_8586">
<rect width="25.35" height="25.35" fill="white" transform="translate(0.825195 0.326172)"/>
</clipPath>
</defs>
</svg>
