<svg width="27" height="25" viewBox="0 0 27 25" fill="none" xmlns="http://www.w3.org/2000/svg">
<path d="M13.2182 2.08333C7.69453 2.08333 3.14206 6.19791 2.60889 11.4583L7.9073 14.3331C8.47246 13.8435 9.20874 13.5417 10.0192 13.5417C10.0512 13.5417 10.0726 13.5518 10.1046 13.5518C10.7444 12.5935 11.5651 11.3746 12.1623 10.5204C12.1623 10.4788 12.1519 10.4479 12.1519 10.4167C12.1519 9.30208 12.5996 8.26033 13.3994 7.46866C15.0096 5.89575 17.8249 5.89575 19.4351 7.46866C20.2348 8.26033 20.6826 9.30208 20.6826 10.4167C20.6826 11.5312 20.2348 12.573 19.4351 13.3647C18.6247 14.1459 17.5582 14.5833 16.4172 14.5833C16.3853 14.5833 16.343 14.5732 16.311 14.5732C15.4366 15.1565 14.1888 15.9582 13.2078 16.5832C13.2078 16.6145 13.2182 16.6354 13.2182 16.6667C13.2182 18.3958 11.7893 19.7917 10.0192 19.7917C8.24903 19.7917 6.82012 18.3958 6.82012 16.6667C6.82012 16.4896 6.83162 16.3125 6.87427 16.1458L2.65054 13.855C3.32234 18.9696 7.80116 22.9167 13.2182 22.9167C19.1044 22.9167 23.8817 18.25 23.8817 12.5C23.8817 6.74999 19.1044 2.08333 13.2182 2.08333ZM6.87427 16.1458L9.4964 17.572C9.66702 17.6658 9.83788 17.7083 10.0192 17.7083C10.3924 17.7083 10.754 17.5107 10.946 17.1773C11.2339 16.6669 11.0538 16.0321 10.5419 15.7613L7.9073 14.3331C7.36346 14.781 6.99157 15.4271 6.87427 16.1458ZM16.4172 8.33333C15.8516 8.33333 15.3092 8.55282 14.9092 8.94352C14.5092 9.33422 14.2845 9.86413 14.2845 10.4167C14.2845 10.9692 14.5092 11.4991 14.9092 11.8898C15.3092 12.2805 15.8516 12.5 16.4172 12.5C16.9829 12.5 17.5253 12.2805 17.9253 11.8898C18.3252 11.4991 18.5499 10.9692 18.5499 10.4167C18.5499 9.86413 18.3252 9.33422 17.9253 8.94352C17.5253 8.55282 16.9829 8.33333 16.4172 8.33333Z" fill="#76808C"/>
</svg>
