<svg width="18" height="19" viewBox="0 0 18 19" fill="none" xmlns="http://www.w3.org/2000/svg">
<g clip-path="url(#clip0_519_15372)">
<path d="M8.16 2.04376L12.315 6.19876C12.5925 6.47626 12.75 6.85876 12.75 7.25626V14.7488C12.75 15.5738 12.075 16.2488 11.25 16.2488H4.5C3.9 16.2488 3.36 15.8888 3.12 15.3413L0.674999 9.63376C0.0450001 8.14876 1.1325 6.49876 2.745 6.49876H6.9825L6.27 3.06376C6.195 2.68876 6.3075 2.30626 6.5775 2.03626C7.02 1.60126 7.725 1.60126 8.16 2.04376ZM15.75 16.2488C14.925 16.2488 14.25 15.5738 14.25 14.7488V8.74875C14.25 7.92376 14.925 7.24876 15.75 7.24876C16.575 7.24876 17.25 7.92376 17.25 8.74875V14.7488C17.25 15.5738 16.575 16.2488 15.75 16.2488Z" fill="#F3F3F3"/>
</g>
<defs>
<clipPath id="clip0_519_15372">
<rect width="18" height="18" fill="white" transform="matrix(-1 0 0 1 18 0.5)"/>
</clipPath>
</defs>
</svg>
