<svg width="30" height="30" viewBox="0 0 30 30" fill="none" xmlns="http://www.w3.org/2000/svg">
<g clip-path="url(#clip0_340_1121)">
<path d="M20.3 9.7C18.8375 8.2375 16.925 7.5 15 7.5V15L9.7 20.3C12.625 23.225 17.375 23.225 20.3125 20.3C23.2375 17.375 23.2375 12.625 20.3 9.7ZM15 2.5C8.1 2.5 2.5 8.1 2.5 15C2.5 21.9 8.1 27.5 15 27.5C21.9 27.5 27.5 21.9 27.5 15C27.5 8.1 21.9 2.5 15 2.5ZM15 25C9.475 25 5 20.525 5 15C5 9.475 9.475 5 15 5C20.525 5 25 9.475 25 15C25 20.525 20.525 25 15 25Z" fill="#76808C" fill-opacity="0.2"/>
</g>
<defs>
<clipPath id="clip0_340_1121">
<rect width="30" height="30" fill="white"/>
</clipPath>
</defs>
</svg>
